<svg width="18" height="19" viewBox="0 0 18 19" fill="none" xmlns="http://www.w3.org/2000/svg">
<g id="system-uicons:moon">
<path id="Vector" d="M9.79192 3.745C10.9227 3.745 11.9802 4.05059 12.8811 4.58084C11.5833 4.65879 10.3651 5.21376 9.4745 6.13269C8.58393 7.05162 8.08807 8.26535 8.08796 9.52657C8.08785 10.7878 8.5835 12.0016 9.47391 12.9207C10.3643 13.8397 11.5825 14.3949 12.8802 14.4731C12.0937 14.9347 11.2077 15.2136 10.2917 15.288C9.37557 15.3623 8.45416 15.2301 7.59949 14.9017C6.74482 14.5733 5.98005 14.0575 5.36497 13.3948C4.7499 12.7321 4.3012 11.9403 4.05396 11.0815C3.80672 10.2226 3.76764 9.31991 3.93977 8.44396C4.11191 7.56801 4.49059 6.74256 5.04622 6.03215C5.60184 5.32173 6.31934 4.74562 7.14262 4.34884C7.9659 3.95207 8.87263 3.7454 9.79192 3.745Z" stroke="white" stroke-width="2" stroke-linecap="round" stroke-linejoin="round"/>
</g>
</svg>
