<svg width="14" height="15" viewBox="0 0 14 15" fill="none" xmlns="http://www.w3.org/2000/svg">
<g id="&#209;&#129;&#208;&#190;&#208;&#189;&#209;&#134;&#208;&#181;">
<path id="Vector" opacity="0.3" d="M2.75733 3.25733L3.7 4.2M10.3 10.8L11.2427 11.7427M1 7.5H2.33333M11.6667 7.5H13M2.75667 11.742L3.7 10.8M10.2993 4.2L11.242 3.25667M7 13.5V12.1667M7 2.83333V1.5M7 10.1667C8.47933 10.1667 9.66667 8.99133 9.66667 7.512C9.66798 7.16087 9.59999 6.81294 9.46659 6.48814C9.3332 6.16333 9.13701 5.86805 8.88928 5.61921C8.64156 5.37037 8.34716 5.17286 8.02296 5.038C7.69876 4.90315 7.35113 4.83359 7 4.83333C5.52067 4.83333 4.33333 6.02067 4.33333 7.5C4.33333 8.97933 5.52067 10.1667 7 10.1667Z" stroke="#0F0F0F" stroke-width="1.5" stroke-linecap="round" stroke-linejoin="round"/>
<g id="Group">
<path id="Vector_2" d="M7 1.5V2.83333M11.3333 3.16667L10.3333 4.16667" stroke="#0F0F0F" stroke-width="1.5" stroke-linecap="round" stroke-linejoin="round"/>
<path id="Vector_3" d="M6.99906 10.1668C8.47182 10.1668 9.66573 8.97292 9.66573 7.50016C9.66573 6.0274 8.47182 4.8335 6.99906 4.8335C5.5263 4.8335 4.3324 6.0274 4.3324 7.50016C4.3324 8.97292 5.5263 10.1668 6.99906 10.1668Z" stroke="#0F0F0F" stroke-width="1.5" stroke-linecap="round" stroke-linejoin="round"/>
<path id="Vector_4" d="M2.66667 3.16675L3.66667 4.16675M7 13.5001V12.1667M11.3333 11.8334L10.3333 10.8334M2.66667 11.8334L3.66667 10.8334M1 7.50008H2.33333M11.6667 7.50008H13" stroke="#0F0F0F" stroke-width="1.5" stroke-linecap="round" stroke-linejoin="round"/>
</g>
</g>
</svg>
